<svg width="20" height="18" viewBox="0 0 20 18" fill="none" xmlns="http://www.w3.org/2000/svg">
<g clip-path="url(#clip0_1_1004)">
<path d="M16.6406 18L12.2656 14.2383L12.8125 15.75H2.07031C1.4974 15.75 1.00911 15.5684 0.605469 15.2051C0.201823 14.8418 0 14.4023 0 13.8867V2.63672C0 2.12109 0.201823 1.67578 0.605469 1.30078C1.00911 0.925781 1.4974 0.738281 2.07031 0.738281H14.5703C15.1432 0.738281 15.6315 0.925781 16.0352 1.30078C16.4388 1.67578 16.6406 2.12109 16.6406 2.63672V18ZM8.32031 5.09766C7.66927 5.09766 7.00521 5.16797 6.32813 5.30859C5.85938 5.42578 5.41667 5.56641 5 5.73047L4.53125 5.97656C4.86979 5.67187 5.36458 5.40234 6.01563 5.16797L6.875 4.88672L6.71875 4.74609C6.14583 4.74609 5.53385 4.89844 4.88281 5.20312C4.54427 5.34375 4.27083 5.49609 4.0625 5.66016C3.61979 6.45703 3.29427 7.28906 3.08594 8.15625C2.90365 8.76563 2.78646 9.36328 2.73438 9.94922L2.69531 10.6523C3.1901 11.2148 3.82813 11.6016 4.60938 11.8125C5 11.9063 5.33854 11.9414 5.625 11.918L6.21094 11.25C5.89844 11.1797 5.59896 11.0625 5.3125 10.8984C5.10417 10.7578 4.90885 10.6055 4.72656 10.4414L4.49219 10.2305L5 10.4766C5.41667 10.6641 5.85938 10.8164 6.32813 10.9336C6.97917 11.0977 7.64323 11.1797 8.32031 11.1797C8.9974 11.1797 9.66146 11.0977 10.3125 10.9336C10.7813 10.8164 11.224 10.6641 11.6406 10.4766L12.1484 10.2305L11.9141 10.4414C11.7318 10.6055 11.5365 10.7578 11.3281 10.8984C11.0417 11.0625 10.7422 11.1797 10.4297 11.25L11.0156 11.918L11.5234 11.8828C11.9141 11.8359 12.2917 11.7422 12.6563 11.6016C13.151 11.3906 13.5807 11.0742 13.9453 10.6523L13.9063 9.94922C13.8542 9.36328 13.737 8.76563 13.5547 8.15625C13.3464 7.28906 13.0208 6.45703 12.5781 5.66016L12.1875 5.41406C11.875 5.25 11.5495 5.10937 11.2109 4.99219C10.7682 4.82813 10.3385 4.74609 9.92188 4.74609L9.76563 4.88672L10.625 5.16797C11.276 5.40234 11.7708 5.67187 12.1094 5.97656L11.6406 5.73047C11.224 5.56641 10.7813 5.42578 10.3125 5.30859C9.63542 5.16797 8.97135 5.09766 8.32031 5.09766ZM6.60156 7.94531C6.86198 7.94531 7.08984 8.03906 7.28516 8.22656C7.48047 8.41406 7.57813 8.63672 7.57813 8.89453C7.57813 9.15234 7.48047 9.375 7.28516 9.5625C7.08984 9.75 6.86198 9.84375 6.60156 9.84375C6.34115 9.84375 6.11328 9.75 5.91797 9.5625C5.72266 9.375 5.625 9.15234 5.625 8.89453C5.625 8.63672 5.71615 8.41406 5.89844 8.22656C6.08073 8.03906 6.3151 7.94531 6.60156 7.94531ZM10.0781 7.94531C10.3385 7.94531 10.5664 8.03906 10.7617 8.22656C10.957 8.41406 11.0547 8.63672 11.0547 8.89453C11.0547 9.15234 10.957 9.375 10.7617 9.5625C10.5664 9.75 10.3385 9.84375 10.0781 9.84375C9.81771 9.84375 9.58984 9.75 9.39453 9.5625C9.19922 9.375 9.10156 9.15234 9.10156 8.89453C9.10156 8.63672 9.19271 8.41406 9.375 8.22656C9.55729 8.03906 9.79167 7.94531 10.0781 7.94531Z" fill="white"/>
</g>
<defs>
<clipPath id="clip0_1_1004">
<rect width="20" height="18" fill="white" transform="matrix(1 0 0 -1 0 18)"/>
</clipPath>
</defs>
</svg>
