<svg width="19" height="11" viewBox="0 0 19 11" fill="none" xmlns="http://www.w3.org/2000/svg">
<path d="M17.1783 10.7234H12.6783V7.73511H10.6744C10.2525 8.64917 9.61383 9.37573 8.75836 9.91479C7.90289 10.4539 6.95953 10.7234 5.92828 10.7234C4.99078 10.7234 4.11774 10.489 3.30914 10.0203C2.50055 9.55151 1.86188 8.91284 1.39313 8.10425C0.924377 7.29565 0.690002 6.42261 0.690002 5.48511C0.690002 4.54761 0.924377 3.67456 1.39313 2.86597C1.86188 2.05737 2.50055 1.4187 3.30914 0.949951C4.11774 0.481201 4.99078 0.246826 5.92828 0.246826C6.95953 0.246826 7.90289 0.516357 8.75836 1.05542C9.61383 1.59448 10.2525 2.32104 10.6744 3.23511H18.69V7.73511H17.1783V10.7234ZM14.19 9.24683H15.7017V6.22339H17.1783V4.74683H9.65485L9.47906 4.21948C9.19781 3.49292 8.73492 2.89526 8.09039 2.42651C7.44586 1.95776 6.72516 1.72339 5.92828 1.72339C5.2486 1.72339 4.62164 1.89331 4.04742 2.23315C3.47321 2.573 3.02203 3.03003 2.69391 3.60425C2.36578 4.17847 2.20172 4.80542 2.20172 5.48511C2.20172 6.16479 2.36578 6.79175 2.69391 7.36597C3.02203 7.94019 3.47321 8.39722 4.04742 8.73706C4.62164 9.0769 5.2486 9.24683 5.92828 9.24683C6.72516 9.24683 7.44586 9.01245 8.09039 8.5437C8.73492 8.07495 9.19781 7.47729 9.47906 6.75073L9.65485 6.22339H14.19V9.24683ZM5.92828 7.73511C5.31891 7.73511 4.79156 7.51831 4.34625 7.08472C3.90094 6.65112 3.67828 6.11792 3.67828 5.48511C3.67828 4.85229 3.90094 4.31909 4.34625 3.8855C4.79156 3.4519 5.32477 3.23511 5.94586 3.23511C6.56696 3.23511 7.0943 3.4519 7.52789 3.8855C7.96149 4.31909 8.17828 4.85229 8.17828 5.48511C8.17828 6.11792 7.96149 6.65112 7.52789 7.08472C7.0943 7.51831 6.5611 7.73511 5.92828 7.73511ZM5.92828 4.74683C5.71735 4.74683 5.54156 4.81714 5.40094 4.95776C5.26031 5.09839 5.19 5.27417 5.19 5.48511C5.19 5.69604 5.26031 5.87183 5.40094 6.01245C5.54156 6.15308 5.71735 6.22339 5.92828 6.22339C6.13922 6.22339 6.32086 6.15308 6.47321 6.01245C6.62555 5.87183 6.70172 5.69604 6.70172 5.48511C6.70172 5.27417 6.62555 5.09839 6.47321 4.95776C6.32086 4.81714 6.13922 4.74683 5.92828 4.74683Z" fill="white"/>
</svg>
