<svg width="103" height="54" viewBox="0 0 103 54" fill="none" xmlns="http://www.w3.org/2000/svg">
<path d="M63.5205 27.7C63.2705 27.74 62.9955 27.785 62.6955 27.835C62.3955 27.885 62.1255 27.93 61.8855 27.97C61.9255 27.64 61.9655 27.315 62.0055 26.995C62.0355 26.715 62.0605 26.435 62.0805 26.155C62.1105 25.875 62.1355 25.635 62.1555 25.435H60.8505L60.2505 27.595C60.0305 27.625 59.7705 27.66 59.4705 27.7C59.1705 27.73 58.8905 27.76 58.6305 27.79C58.3105 27.83 57.9955 27.87 57.6855 27.91C58.0855 26.58 58.4805 25.27 58.8705 23.98C59.0305 23.44 59.1955 22.875 59.3655 22.285C59.5455 21.695 59.7205 21.11 59.8905 20.53C60.0705 19.94 60.2405 19.375 60.4005 18.835C60.5605 18.295 60.7005 17.8 60.8205 17.35C61.5005 17.3 62.1905 17.24 62.8905 17.17C63.6005 17.1 64.2905 17.005 64.9605 16.885C64.9305 17.205 64.8955 17.605 64.8555 18.085C64.8255 18.555 64.7955 19.07 64.7655 19.63C64.7355 20.19 64.7055 20.775 64.6755 21.385C64.6455 21.995 64.6155 22.595 64.5855 23.185C64.5355 24.565 64.4805 26.03 64.4205 27.58C64.1205 27.63 63.8205 27.67 63.5205 27.7ZM61.2105 23.935C61.2505 23.935 61.3205 23.935 61.4205 23.935C61.5305 23.925 61.6405 23.92 61.7505 23.92C61.8705 23.91 61.9805 23.905 62.0805 23.905C62.1805 23.895 62.2505 23.885 62.2905 23.875C62.2905 23.815 62.2955 23.715 62.3055 23.575C62.3255 23.425 62.3405 23.26 62.3505 23.08C62.3705 22.89 62.3905 22.685 62.4105 22.465C62.4305 22.245 62.4505 22.03 62.4705 21.82C62.5105 21.31 62.5605 20.76 62.6205 20.17L62.7105 18.865L62.4855 18.88L62.1405 20.17L61.2105 23.935ZM65.5997 28.015C65.8697 26.685 66.1297 25.385 66.3797 24.115C66.4697 23.575 66.5697 23.015 66.6797 22.435C66.7897 21.845 66.8897 21.265 66.9797 20.695C67.0797 20.115 67.1697 19.56 67.2497 19.03C67.3397 18.49 67.4097 18 67.4597 17.56C68.0297 17.38 68.6447 17.25 69.3047 17.17C69.9647 17.08 70.6197 17.035 71.2697 17.035C71.6597 17.035 71.9797 17.08 72.2297 17.17C72.4897 17.26 72.6897 17.39 72.8297 17.56C72.9797 17.72 73.0847 17.91 73.1447 18.13C73.2047 18.35 73.2347 18.595 73.2347 18.865C73.2347 19.265 73.1647 19.66 73.0247 20.05C72.8847 20.43 72.6947 20.795 72.4547 21.145C72.2247 21.485 71.9547 21.8 71.6447 22.09C71.3447 22.37 71.0197 22.6 70.6697 22.78C70.8497 23.18 71.0397 23.62 71.2397 24.1C71.4497 24.57 71.6447 25.02 71.8247 25.45C72.0247 25.95 72.2297 26.45 72.4397 26.95L70.1147 27.76C69.9147 27.12 69.7347 26.52 69.5747 25.96C69.5047 25.73 69.4347 25.495 69.3647 25.255C69.2947 25.005 69.2297 24.77 69.1697 24.55C69.1097 24.33 69.0597 24.135 69.0197 23.965C68.9797 23.785 68.9547 23.64 68.9447 23.53L68.7497 23.59C68.6897 23.91 68.6147 24.285 68.5247 24.715C68.4447 25.145 68.3697 25.56 68.2997 25.96C68.2097 26.43 68.1197 26.905 68.0297 27.385L65.5997 28.015ZM69.1247 21.505C69.3147 21.485 69.5447 21.405 69.8147 21.265C70.0947 21.125 70.3597 20.96 70.6097 20.77C70.8597 20.57 71.0747 20.365 71.2547 20.155C71.4347 19.945 71.5247 19.76 71.5247 19.6C71.5247 19.49 71.4897 19.405 71.4197 19.345C71.3497 19.275 71.2497 19.225 71.1197 19.195C70.9997 19.155 70.8647 19.13 70.7147 19.12C70.5647 19.11 70.4097 19.105 70.2497 19.105C70.1397 19.105 70.0247 19.11 69.9047 19.12C69.7947 19.12 69.6947 19.12 69.6047 19.12L69.1247 21.505ZM79.6598 24.775C79.4198 25.325 79.1498 25.805 78.8498 26.215C78.5598 26.615 78.2498 26.955 77.9198 27.235C77.5998 27.505 77.2748 27.705 76.9448 27.835C76.6148 27.965 76.2948 28.03 75.9848 28.03C75.6748 28.03 75.3898 27.96 75.1298 27.82C74.8798 27.68 74.6598 27.47 74.4698 27.19C74.2798 26.91 74.1248 26.565 74.0048 26.155C73.8948 25.745 73.8398 25.265 73.8398 24.715C73.8398 23.775 73.9698 22.85 74.2298 21.94C74.4898 21.02 74.8548 20.195 75.3248 19.465C75.7948 18.735 76.3498 18.15 76.9898 17.71C77.6398 17.26 78.3548 17.035 79.1348 17.035C79.3748 17.035 79.6048 17.085 79.8248 17.185C80.0448 17.285 80.2348 17.425 80.3948 17.605C80.5548 17.785 80.6798 18.005 80.7698 18.265C80.8698 18.525 80.9198 18.815 80.9198 19.135C80.9198 19.195 80.9198 19.26 80.9198 19.33C80.9198 19.39 80.9148 19.455 80.9048 19.525L78.9398 20.05C78.8198 19.8 78.6798 19.675 78.5198 19.675C78.3598 19.675 78.1898 19.77 78.0098 19.96C77.8398 20.14 77.6698 20.38 77.4998 20.68C77.3298 20.97 77.1648 21.3 77.0048 21.67C76.8448 22.03 76.7048 22.395 76.5848 22.765C76.4648 23.135 76.3648 23.49 76.2848 23.83C76.2148 24.16 76.1798 24.43 76.1798 24.64C76.1798 24.96 76.2198 25.185 76.2998 25.315C76.3898 25.445 76.5048 25.51 76.6448 25.51C76.7548 25.51 76.8798 25.47 77.0198 25.39C77.1598 25.3 77.2898 25.19 77.4098 25.06C77.5298 24.92 77.6398 24.765 77.7398 24.595C77.8398 24.425 77.9098 24.255 77.9498 24.085L79.6598 24.775ZM86.0357 27.7C85.7857 27.74 85.5107 27.785 85.2107 27.835C84.9107 27.885 84.6407 27.93 84.4007 27.97C84.4407 27.64 84.4807 27.315 84.5207 26.995C84.5507 26.715 84.5757 26.435 84.5957 26.155C84.6257 25.875 84.6507 25.635 84.6707 25.435H83.3657L82.7657 27.595C82.5457 27.625 82.2857 27.66 81.9857 27.7C81.6857 27.73 81.4057 27.76 81.1457 27.79C80.8257 27.83 80.5107 27.87 80.2007 27.91C80.6007 26.58 80.9957 25.27 81.3857 23.98C81.5457 23.44 81.7107 22.875 81.8807 22.285C82.0607 21.695 82.2357 21.11 82.4057 20.53C82.5857 19.94 82.7557 19.375 82.9157 18.835C83.0757 18.295 83.2157 17.8 83.3357 17.35C84.0157 17.3 84.7057 17.24 85.4057 17.17C86.1157 17.1 86.8057 17.005 87.4757 16.885C87.4457 17.205 87.4107 17.605 87.3707 18.085C87.3407 18.555 87.3107 19.07 87.2807 19.63C87.2507 20.19 87.2207 20.775 87.1907 21.385C87.1607 21.995 87.1307 22.595 87.1007 23.185C87.0507 24.565 86.9957 26.03 86.9357 27.58C86.6357 27.63 86.3357 27.67 86.0357 27.7ZM83.7257 23.935C83.7657 23.935 83.8357 23.935 83.9357 23.935C84.0457 23.925 84.1557 23.92 84.2657 23.92C84.3857 23.91 84.4957 23.905 84.5957 23.905C84.6957 23.895 84.7657 23.885 84.8057 23.875C84.8057 23.815 84.8107 23.715 84.8207 23.575C84.8407 23.425 84.8557 23.26 84.8657 23.08C84.8857 22.89 84.9057 22.685 84.9257 22.465C84.9457 22.245 84.9657 22.03 84.9857 21.82C85.0257 21.31 85.0757 20.76 85.1357 20.17L85.2257 18.865L85.0007 18.88L84.6557 20.17L83.7257 23.935ZM88.13 28.075C88.43 26.635 88.715 25.24 88.985 23.89C89.085 23.31 89.19 22.71 89.3 22.09C89.42 21.47 89.53 20.86 89.63 20.26C89.73 19.65 89.82 19.07 89.9 18.52C89.98 17.96 90.04 17.455 90.08 17.005C90.21 17.015 90.32 17.02 90.41 17.02C90.5 17.02 90.605 17.02 90.725 17.02C90.865 17.02 91.035 17.02 91.235 17.02C91.435 17.01 91.635 17 91.835 16.99C92.035 16.98 92.25 16.97 92.48 16.96C92.62 17.66 92.745 18.335 92.855 18.985C92.965 19.555 93.075 20.14 93.185 20.74C93.305 21.34 93.41 21.85 93.5 22.27C93.54 22.07 93.585 21.84 93.635 21.58C93.685 21.31 93.74 21.03 93.8 20.74C93.86 20.45 93.915 20.16 93.965 19.87C94.025 19.57 94.085 19.275 94.145 18.985C94.285 18.335 94.43 17.665 94.58 16.975L96.41 16.75C96.07 18.28 95.77 19.73 95.51 21.1C95.39 21.69 95.27 22.29 95.15 22.9C95.04 23.5 94.935 24.08 94.835 24.64C94.735 25.19 94.65 25.705 94.58 26.185C94.51 26.655 94.455 27.05 94.415 27.37C94.385 27.37 94.265 27.395 94.055 27.445C93.855 27.485 93.62 27.535 93.35 27.595C93.09 27.655 92.825 27.715 92.555 27.775C92.295 27.835 92.1 27.89 91.97 27.94C91.91 27.14 91.845 26.38 91.775 25.66C91.745 25.35 91.71 25.035 91.67 24.715C91.64 24.385 91.605 24.07 91.565 23.77C91.525 23.47 91.485 23.19 91.445 22.93C91.405 22.67 91.365 22.445 91.325 22.255C91.295 22.445 91.255 22.665 91.205 22.915C91.155 23.165 91.105 23.43 91.055 23.71C91.005 23.99 90.955 24.285 90.905 24.595C90.855 24.895 90.8 25.185 90.74 25.465C90.61 26.135 90.47 26.835 90.32 27.565L88.13 28.075ZM96.0072 28.015L97.9722 17.35L102.712 16.945C102.642 17.165 102.582 17.39 102.532 17.62C102.482 17.81 102.432 18.01 102.382 18.22C102.342 18.42 102.307 18.6 102.277 18.76C102.177 18.77 102.032 18.78 101.842 18.79C101.662 18.79 101.467 18.795 101.257 18.805C101.047 18.805 100.832 18.805 100.612 18.805C100.402 18.805 100.217 18.805 100.057 18.805L99.5322 21.49C99.8422 21.47 100.132 21.455 100.402 21.445C100.622 21.435 100.847 21.43 101.077 21.43C101.307 21.43 101.477 21.425 101.587 21.415C101.547 21.695 101.507 21.97 101.467 22.24C101.437 22.51 101.397 22.785 101.347 23.065C101.247 23.075 101.082 23.085 100.852 23.095C100.632 23.095 100.407 23.1 100.177 23.11C99.9172 23.12 99.6322 23.13 99.3222 23.14L98.8122 25.9L101.002 25.555L100.852 27.265L96.0072 28.015Z" fill="white"/>
<path d="M61.42 45.015C61.69 43.685 61.95 42.385 62.2 41.115C62.29 40.575 62.39 40.015 62.5 39.435C62.61 38.845 62.71 38.265 62.8 37.695C62.9 37.115 62.99 36.56 63.07 36.03C63.16 35.49 63.23 35 63.28 34.56C63.85 34.38 64.465 34.25 65.125 34.17C65.785 34.08 66.44 34.035 67.09 34.035C67.48 34.035 67.8 34.08 68.05 34.17C68.31 34.26 68.51 34.39 68.65 34.56C68.8 34.72 68.905 34.91 68.965 35.13C69.025 35.35 69.055 35.595 69.055 35.865C69.055 36.265 68.985 36.66 68.845 37.05C68.705 37.43 68.515 37.795 68.275 38.145C68.045 38.485 67.775 38.8 67.465 39.09C67.165 39.37 66.84 39.6 66.49 39.78C66.67 40.18 66.86 40.62 67.06 41.1C67.27 41.57 67.465 42.02 67.645 42.45C67.845 42.95 68.05 43.45 68.26 43.95L65.935 44.76C65.735 44.07 65.555 43.42 65.395 42.81C65.325 42.56 65.255 42.305 65.185 42.045C65.115 41.775 65.05 41.525 64.99 41.295C64.93 41.055 64.88 40.845 64.84 40.665C64.8 40.485 64.775 40.345 64.765 40.245L64.57 40.305C64.51 40.625 64.435 41.015 64.345 41.475C64.265 41.935 64.19 42.38 64.12 42.81C64.03 43.32 63.94 43.845 63.85 44.385L61.42 45.015ZM64.945 38.505C65.135 38.485 65.365 38.405 65.635 38.265C65.915 38.125 66.18 37.96 66.43 37.77C66.68 37.57 66.895 37.365 67.075 37.155C67.255 36.945 67.345 36.76 67.345 36.6C67.345 36.49 67.31 36.405 67.24 36.345C67.17 36.275 67.07 36.225 66.94 36.195C66.82 36.155 66.685 36.13 66.535 36.12C66.385 36.11 66.23 36.105 66.07 36.105C65.96 36.105 65.845 36.11 65.725 36.12C65.615 36.12 65.515 36.12 65.425 36.12L64.945 38.505ZM69.195 45.015L71.16 34.35L75.9 33.945C75.83 34.165 75.77 34.39 75.72 34.62C75.67 34.81 75.62 35.01 75.57 35.22C75.53 35.42 75.495 35.6 75.465 35.76C75.365 35.77 75.22 35.78 75.03 35.79C74.85 35.79 74.655 35.795 74.445 35.805C74.235 35.805 74.02 35.805 73.8 35.805C73.59 35.805 73.405 35.805 73.245 35.805L72.72 38.49C73.03 38.47 73.32 38.455 73.59 38.445C73.81 38.435 74.035 38.43 74.265 38.43C74.495 38.43 74.665 38.425 74.775 38.415C74.735 38.695 74.695 38.97 74.655 39.24C74.625 39.51 74.585 39.785 74.535 40.065C74.435 40.075 74.27 40.085 74.04 40.095C73.82 40.095 73.595 40.1 73.365 40.11C73.105 40.12 72.82 40.13 72.51 40.14L72 42.9L74.19 42.555L74.04 44.265L69.195 45.015ZM80.7573 44.7C80.5073 44.74 80.2323 44.785 79.9323 44.835C79.6323 44.885 79.3623 44.93 79.1223 44.97C79.1623 44.64 79.2023 44.315 79.2423 43.995C79.2723 43.715 79.2973 43.435 79.3173 43.155C79.3473 42.875 79.3723 42.635 79.3923 42.435H78.0873L77.4873 44.595C77.2673 44.625 77.0073 44.66 76.7073 44.7C76.4073 44.73 76.1273 44.76 75.8673 44.79C75.5473 44.83 75.2323 44.87 74.9223 44.91C75.3223 43.58 75.7173 42.27 76.1073 40.98C76.2673 40.44 76.4323 39.875 76.6023 39.285C76.7823 38.695 76.9573 38.11 77.1273 37.53C77.3073 36.94 77.4773 36.375 77.6373 35.835C77.7973 35.295 77.9373 34.8 78.0573 34.35C78.7373 34.3 79.4273 34.24 80.1273 34.17C80.8373 34.1 81.5273 34.005 82.1973 33.885C82.1673 34.205 82.1323 34.605 82.0923 35.085C82.0623 35.555 82.0323 36.07 82.0023 36.63C81.9723 37.19 81.9423 37.775 81.9123 38.385C81.8823 38.995 81.8523 39.595 81.8223 40.185C81.7723 41.565 81.7173 43.03 81.6573 44.58C81.3573 44.63 81.0573 44.67 80.7573 44.7ZM78.4473 40.935C78.4873 40.935 78.5573 40.935 78.6573 40.935C78.7673 40.925 78.8773 40.92 78.9873 40.92C79.1073 40.91 79.2173 40.905 79.3173 40.905C79.4173 40.895 79.4873 40.885 79.5273 40.875C79.5273 40.815 79.5323 40.715 79.5423 40.575C79.5623 40.425 79.5773 40.26 79.5873 40.08C79.6073 39.89 79.6273 39.685 79.6473 39.465C79.6673 39.245 79.6873 39.03 79.7073 38.82C79.7473 38.31 79.7973 37.76 79.8573 37.17L79.9473 35.865L79.7223 35.88L79.3773 37.17L78.4473 40.935ZM86.9166 44.52C86.6066 44.52 86.2766 44.53 85.9266 44.55C85.5866 44.57 85.2416 44.6 84.8916 44.64C84.5416 44.68 84.1966 44.735 83.8566 44.805C83.5266 44.865 83.2266 44.94 82.9566 45.03C83.0166 44.58 83.0866 44.08 83.1666 43.53C83.2466 42.98 83.3366 42.41 83.4366 41.82C83.5466 41.23 83.6516 40.635 83.7516 40.035C83.8616 39.435 83.9716 38.86 84.0816 38.31C84.3316 37 84.5966 35.665 84.8766 34.305L87.5016 33.96C87.2316 35.12 86.9716 36.25 86.7216 37.35C86.6116 37.82 86.5016 38.31 86.3916 38.82C86.2816 39.32 86.1766 39.81 86.0766 40.29C85.9766 40.77 85.8866 41.235 85.8066 41.685C85.7266 42.135 85.6616 42.535 85.6116 42.885C85.8616 42.865 86.1266 42.855 86.4066 42.855C86.6966 42.845 86.9516 42.84 87.1716 42.84C87.1816 43.03 87.1966 43.22 87.2166 43.41C87.2366 43.59 87.2566 43.755 87.2766 43.905C87.3066 44.055 87.3266 44.19 87.3366 44.31C87.3566 44.42 87.3716 44.495 87.3816 44.535C87.3016 44.535 87.2216 44.535 87.1416 44.535C87.0716 44.525 86.9966 44.52 86.9166 44.52ZM87.9029 44.91C88.3429 43.58 88.7629 42.275 89.1629 40.995C89.3329 40.455 89.5079 39.89 89.6879 39.3C89.8679 38.71 90.0479 38.125 90.2279 37.545C90.4079 36.965 90.5729 36.405 90.7229 35.865C90.8829 35.325 91.0229 34.825 91.1429 34.365C91.6929 34.365 92.2129 34.335 92.7029 34.275C93.1929 34.215 93.7229 34.16 94.2929 34.11C94.2629 34.33 94.2279 34.58 94.1879 34.86C94.1579 35.13 94.1179 35.415 94.0679 35.715C94.0279 36.015 93.9829 36.325 93.9329 36.645C93.8829 36.965 93.8229 37.375 93.7529 37.875C93.6829 38.375 93.5879 39 93.4679 39.75H93.6629C93.9529 38.99 94.1929 38.36 94.3829 37.86C94.5729 37.35 94.7279 36.935 94.8479 36.615C94.9679 36.295 95.0879 35.985 95.2079 35.685C95.3379 35.375 95.4579 35.085 95.5679 34.815C95.6879 34.535 95.7979 34.29 95.8979 34.08C96.1479 34.06 96.3829 34.035 96.6029 34.005C96.8229 33.975 97.0429 33.945 97.2629 33.915C97.4829 33.875 97.7029 33.84 97.9229 33.81C98.1529 33.77 98.4029 33.725 98.6729 33.675C98.5729 34.255 98.4779 34.85 98.3879 35.46C98.2979 36.07 98.2179 36.68 98.1479 37.29C98.0779 37.89 98.0079 38.485 97.9379 39.075C97.8779 39.665 97.8229 40.225 97.7729 40.755C97.6529 41.995 97.5479 43.205 97.4579 44.385L94.8479 44.85C94.8479 44.8 94.8529 44.665 94.8629 44.445C94.8829 44.225 94.9029 43.955 94.9229 43.635C94.9529 43.315 94.9879 42.96 95.0279 42.57C95.0779 42.18 95.1229 41.79 95.1629 41.4C95.2129 41.01 95.2629 40.635 95.3129 40.275C95.3629 39.905 95.4129 39.59 95.4629 39.33H95.3279C95.1879 39.75 95.0329 40.195 94.8629 40.665C94.6929 41.125 94.5179 41.595 94.3379 42.075C94.1679 42.555 93.9979 43.025 93.8279 43.485C93.6579 43.945 93.5079 44.385 93.3779 44.805C93.0279 44.815 92.7279 44.83 92.4779 44.85C92.2279 44.86 91.9379 44.875 91.6079 44.895L92.0879 39.33H91.8629C91.8429 39.46 91.7929 39.68 91.7129 39.99C91.6329 40.29 91.5379 40.64 91.4279 41.04C91.3279 41.43 91.2179 41.84 91.0979 42.27C90.9779 42.69 90.8629 43.085 90.7529 43.455C90.6529 43.815 90.5679 44.115 90.4979 44.355C90.4279 44.585 90.3879 44.715 90.3779 44.745L87.9029 44.91Z" fill="white"/>
<g clip-path="url(#clip0_3_4664)">
<path d="M10.3333 24.2727C11.1365 24.2727 11.7878 23.6214 11.7878 22.8182V19.7273C11.7878 18.924 11.1365 18.2727 10.3333 18.2727C9.53 18.2727 8.87872 18.924 8.87872 19.7273V22.8182C8.87872 23.6214 9.53018 24.2727 10.3333 24.2727Z" fill="#F0892D"/>
<path d="M43.4241 18.2727C42.6209 18.2727 41.9696 18.924 41.9696 19.7273V22.8182C41.9696 23.6214 42.6209 24.2727 43.4241 24.2727C44.2274 24.2727 44.8787 23.6214 44.8787 22.8182V19.7273C44.8787 18.924 44.2274 18.2727 43.4241 18.2727Z" fill="#F0892D"/>
<path d="M49.606 44.8226V16.2726H51.1211C51.6391 16.2726 52.1178 15.9972 52.3784 15.5495C52.6389 15.1017 52.6415 14.5494 52.3856 14.099L44.8402 0.826275C44.5818 0.371729 44.0989 0.0908203 43.5758 0.0908203C43.0527 0.0908203 42.5698 0.371729 42.3113 0.826457L34.7658 14.0992C34.51 14.5495 34.5125 15.1019 34.7731 15.5497C35.0336 15.9974 35.5124 16.2728 36.0304 16.2728H37.4244V24.091H33.0607V20.8183H34.6667C35.1847 20.8183 35.6635 20.5428 35.924 20.0952C36.1845 19.6474 36.1871 19.095 35.9313 18.6446L28.3858 5.37191C28.1273 4.91718 27.6444 4.63628 27.1213 4.63628C26.5982 4.63628 26.1153 4.91718 25.8567 5.37191L18.3113 18.6446C18.0555 19.095 18.058 19.6474 18.3185 20.0952C18.5791 20.5428 19.0578 20.8183 19.5758 20.8183H20.8789V24.091H16.5153V16.2728H18.0304C18.5484 16.2728 19.0271 15.9974 19.2876 15.5497C19.5482 15.1019 19.5507 14.5495 19.2949 14.0992L11.7495 0.826457C11.4909 0.371729 11.0078 0.0908203 10.4849 0.0908203C9.962 0.0908203 9.47891 0.371729 9.22036 0.826457L1.67491 14.0992C1.41909 14.5495 1.42164 15.1019 1.68218 15.5497C1.94273 15.9974 2.42145 16.2728 2.93945 16.2728H4.33345V44.8228C1.96964 44.9186 0 46.9183 0 49.3635C0 51.8699 2.06927 53.909 4.57582 53.909H49.4849C51.9913 53.909 54 51.8699 54 49.3635C54 46.9183 52.1515 44.9186 49.606 44.8226ZM49.4849 50.9999H38.7576C37.8553 50.9999 37.1213 50.2659 37.1213 49.3635C37.1213 48.4612 37.8553 47.7272 38.7576 47.7272H49.4849C50.3873 47.7272 51.1213 48.4612 51.1213 49.3635C51.1213 50.2659 50.3871 50.9999 49.4849 50.9999ZM25.2424 43.6963C25.2424 42.691 26.0011 41.9034 26.9696 41.9034C27.9382 41.9034 28.6969 42.691 28.6969 43.6963V51.1817H25.2424V43.6963ZM26.9696 38.9943C24.3698 38.9943 22.3333 41.0595 22.3333 43.6963V50.9999H19.5424C19.7391 50.4917 19.818 49.9403 19.818 49.3635C19.818 47.299 18.5151 45.5526 16.5151 45.0008V26.9999H37.4242V45.0008C35.606 45.5526 34.1818 47.299 34.1818 49.3635C34.1818 49.9403 34.3213 50.4917 34.518 50.9999H31.606V43.6963C31.606 41.0595 29.5695 38.9943 26.9696 38.9943ZM2.93945 49.3635C2.93945 48.4612 3.67345 47.7272 4.57582 47.7272H15.3031C16.2055 47.7272 16.9395 48.4612 16.9395 49.3635C16.9395 50.2659 16.2055 50.9999 15.3031 50.9999H4.57582C3.67345 50.9999 2.93945 50.2659 2.93945 49.3635ZM5.43945 13.3635L10.4849 4.48846L15.5302 13.3635H5.43945ZM13.6062 16.2726V25.5454V44.8181H7.24255V16.2726H13.6062ZM27.1213 9.03409L32.1667 17.9092H22.0758L27.1213 9.03409ZM30.1515 20.8181V24.0908H23.7878V20.8181H30.1515ZM38.5304 13.3635L43.5758 4.48846L48.6213 13.3635H38.5304ZM40.3333 25.5454V16.2726H46.6969V44.8181H40.3333V25.5454Z" fill="#F0892D"/>
<path d="M21.0607 29.9089C20.2575 29.9089 19.6062 30.5602 19.6062 31.3635V34.4544C19.6062 35.2577 20.2575 35.9089 21.0607 35.9089C21.864 35.9089 22.5153 35.2577 22.5153 34.4544V31.3635C22.5153 30.5602 21.864 29.9089 21.0607 29.9089Z" fill="#F0892D"/>
<path d="M27.0606 29.9089C26.2573 29.9089 25.606 30.5602 25.606 31.3635V34.4544C25.606 35.2577 26.2573 35.9089 27.0606 35.9089C27.8638 35.9089 28.5151 35.2577 28.5151 34.4544V31.3635C28.5151 30.5602 27.8638 29.9089 27.0606 29.9089Z" fill="#F0892D"/>
<path d="M33.0606 35.9089C33.8638 35.9089 34.5151 35.2577 34.5151 34.4544V31.3635C34.5151 30.5602 33.8638 29.9089 33.0606 29.9089C32.2573 29.9089 31.606 30.5602 31.606 31.3635V34.4544C31.606 35.2577 32.2573 35.9089 33.0606 35.9089Z" fill="#F0892D"/>
</g>
<defs>
<clipPath id="clip0_3_4664">
<rect width="54" height="54" fill="white"/>
</clipPath>
</defs>
</svg>
