<svg width="15" height="16" viewBox="0 0 15 16" fill="none" xmlns="http://www.w3.org/2000/svg">
<path d="M12.8283 1.73511H9.69937C9.53531 1.28979 9.25992 0.926514 8.8732 0.645264C8.48648 0.364014 8.05875 0.223389 7.59 0.223389C7.12125 0.223389 6.69351 0.364014 6.30679 0.645264C5.92007 0.926514 5.64468 1.28979 5.48062 1.73511H2.35172C1.92984 1.73511 1.57242 1.88159 1.27945 2.17456C0.986481 2.46753 0.839996 2.82495 0.839996 3.24683V13.7234C0.839996 14.1453 0.986481 14.5027 1.27945 14.7957C1.57242 15.0886 1.92984 15.2351 2.35172 15.2351H12.8283C13.2502 15.2351 13.6076 15.0886 13.9005 14.7957C14.1935 14.5027 14.34 14.1453 14.34 13.7234V3.24683C14.34 2.82495 14.1935 2.46753 13.9005 2.17456C13.6076 1.88159 13.2502 1.73511 12.8283 1.73511ZM7.59 1.73511C7.80093 1.73511 7.97672 1.80542 8.11734 1.94604C8.25797 2.08667 8.32828 2.26245 8.32828 2.47339C8.32828 2.68433 8.25797 2.86597 8.11734 3.01831C7.97672 3.17065 7.80093 3.24683 7.59 3.24683C7.37906 3.24683 7.20328 3.17065 7.06265 3.01831C6.92203 2.86597 6.85172 2.68433 6.85172 2.47339C6.85172 2.26245 6.92203 2.08667 7.06265 1.94604C7.20328 1.80542 7.37906 1.73511 7.59 1.73511ZM3.82828 4.72339H11.3517V3.24683H12.8283V13.7234H2.35172V3.24683H3.82828V4.72339Z" fill="white"/>
</svg>
